<svg width="244" height="238" viewBox="0 0 244 238" fill="none" xmlns="http://www.w3.org/2000/svg">
<path d="M138.808 237.464C136.248 237.464 133.56 237.208 130.744 236.696C128.013 236.184 125.453 235.288 123.064 234.008C120.675 232.813 118.755 231.149 117.304 229.016C115.768 226.968 115 224.408 115 221.336C115 219.203 115.427 216.856 116.28 214.296C117.133 211.821 118.371 209.901 119.992 208.536C120.163 208.195 120.461 208.024 120.888 208.024C121.059 208.024 121.144 208.109 121.144 208.28C121.144 208.621 120.717 209.304 119.864 210.328C118.925 211.352 118.456 212.803 118.456 214.68V215.704C119.139 219.971 120.76 223.427 123.32 226.072C125.88 228.717 128.995 230.595 132.664 231.704C136.333 232.899 140.131 233.496 144.056 233.496C146.445 233.496 148.877 233.283 151.352 232.856C153.827 232.429 156.131 231.789 158.264 230.936C162.616 229.229 166.84 226.755 170.936 223.512C175.117 220.355 179.128 216.728 182.968 212.632C186.808 208.621 190.349 204.525 193.592 200.344C196.92 196.077 199.907 192.067 202.552 188.312C198.285 191.384 193.507 194.115 188.216 196.504C183.011 198.893 177.592 200.728 171.96 202.008C166.413 203.373 160.995 204.056 155.704 204.056C154.765 204.056 153.784 204.013 152.76 203.928C151.821 203.928 150.883 203.885 149.944 203.8V205.336C149.944 208.835 150.499 211.949 151.608 214.68C152.803 217.411 154.893 219.757 157.88 221.72C158.392 222.061 158.648 222.403 158.648 222.744C158.648 223.171 158.392 223.384 157.88 223.384H157.496C152.376 222.36 148.749 219.843 146.616 215.832C144.568 211.907 143.715 207.512 144.056 202.648C137.741 201.027 132.749 197.997 129.08 193.56C125.411 189.037 123.576 183.448 123.576 176.792C123.576 170.989 124.856 165.272 127.416 159.64C130.061 154.008 133.133 148.973 136.632 144.536C140.216 139.928 144.397 135.619 149.176 131.608C154.04 127.597 159.245 124.056 164.792 120.984C170.424 117.827 176.227 115.395 182.2 113.688C188.259 111.896 194.232 111 200.12 111C203.363 111 206.691 111.341 210.104 112.024C213.603 112.621 216.803 113.773 219.704 115.48C221.667 116.589 223.416 117.827 224.952 119.192C226.573 120.557 228.109 122.051 229.56 123.672C229.987 124.099 230.413 124.525 230.84 124.952C231.352 125.293 231.907 125.464 232.504 125.464C233.357 125.464 234.296 124.952 235.32 123.928C236.429 122.819 237.496 121.752 238.52 120.728C239.629 119.704 240.568 119.192 241.336 119.192C241.592 119.192 242.019 119.277 242.616 119.448C243.299 119.533 243.64 119.789 243.64 120.216C243.64 120.387 243.555 120.557 243.384 120.728C241.08 122.776 238.819 124.824 236.6 126.872C234.381 128.92 232.248 131.139 230.2 133.528C228.92 135.064 227.683 136.643 226.488 138.264C225.379 139.8 224.227 141.379 223.032 143C222.947 143.171 222.776 143.384 222.52 143.64C222.349 143.811 222.093 143.896 221.752 143.896C221.24 143.896 220.984 143.512 220.984 142.744C220.984 142.403 221.069 141.976 221.24 141.464C222.008 139.672 222.648 137.837 223.16 135.96C223.757 134.083 224.056 132.163 224.056 130.2C224.056 127.043 223.288 124.44 221.752 122.392C220.301 120.259 218.381 118.595 215.992 117.4C213.603 116.12 211 115.224 208.184 114.712C205.453 114.2 202.808 113.944 200.248 113.944C194.275 113.944 188.301 115.096 182.328 117.4C176.44 119.619 170.765 122.648 165.304 126.488C159.928 130.243 155.064 134.509 150.712 139.288C146.36 143.981 142.776 148.845 139.96 153.88C138.253 157.037 136.76 160.408 135.48 163.992C134.285 167.491 133.688 171.032 133.688 174.616C133.688 178.968 134.712 182.851 136.76 186.264C138.893 189.677 141.837 192.365 145.592 194.328C147.384 188.184 150.499 182.893 154.936 178.456C159.459 173.933 164.664 170.221 170.552 167.32C176.525 164.419 182.712 162.285 189.112 160.92C195.597 159.469 201.784 158.744 207.672 158.744C211.597 158.744 215.48 159 219.32 159.512C223.16 160.024 227.043 160.28 230.968 160.28C231.565 160.28 232.163 160.28 232.76 160.28C233.443 160.28 234.083 160.237 234.68 160.152C235.704 160.067 236.515 159.939 237.112 159.768C237.709 159.597 238.435 159.213 239.288 158.616C239.373 158.616 239.416 158.616 239.416 158.616C239.501 158.531 239.587 158.488 239.672 158.488C239.928 158.488 240.056 158.659 240.056 159C240.056 159.427 239.8 159.896 239.288 160.408C237.155 162.285 235.149 163.779 233.272 164.888C231.395 165.997 228.963 166.552 225.976 166.552C222.051 172.867 217.827 179.352 213.304 186.008C208.867 192.579 204.045 198.936 198.84 205.08C193.635 211.224 188.003 216.728 181.944 221.592C175.885 226.456 169.272 230.296 162.104 233.112C155.021 236.013 147.256 237.464 138.808 237.464ZM197.176 157.72C194.872 157.464 192.269 157.251 189.368 157.08C186.552 156.824 183.736 156.44 180.92 155.928C178.189 155.331 175.8 154.435 173.752 153.24C172.899 152.728 171.96 152.045 170.936 151.192C169.997 150.339 169.528 149.357 169.528 148.248C169.528 147.736 169.699 147.181 170.04 146.584C170.723 145.389 172.088 144.536 174.136 144.024C176.269 143.427 177.976 143.213 179.256 143.384C179.512 143.384 179.725 143.427 179.896 143.512C179.896 143.512 179.896 143.555 179.896 143.64C179.981 143.64 179.981 143.683 179.896 143.768C179.811 144.024 179.64 144.237 179.384 144.408C179.213 144.493 178.957 144.877 178.616 145.56C178.275 146.157 178.317 146.755 178.744 147.352C179.256 147.949 179.853 148.504 180.536 149.016C181.304 149.528 181.901 149.912 182.328 150.168C184.803 151.619 187.277 152.813 189.752 153.752C192.227 154.605 194.829 155.416 197.56 156.184C197.901 156.269 198.243 156.397 198.584 156.568C198.925 156.653 199.267 156.781 199.608 156.952C199.608 157.037 199.651 157.123 199.736 157.208C199.907 157.208 199.949 157.251 199.864 157.336C199.779 157.592 199.352 157.763 198.584 157.848C197.901 157.848 197.432 157.805 197.176 157.72ZM162.744 198.04C169.4 198.04 176.227 196.931 183.224 194.712C190.307 192.408 196.536 189.336 201.912 185.496C202.851 184.813 203.875 184.088 204.984 183.32C206.093 182.467 206.947 181.613 207.544 180.76C208.056 180.163 208.525 179.48 208.952 178.712C209.464 177.944 209.933 177.219 210.36 176.536C211.555 174.744 212.664 172.952 213.688 171.16C214.797 169.368 215.864 167.533 216.888 165.656C213.816 165.485 210.701 165.357 207.544 165.272C204.387 165.101 201.272 165.016 198.2 165.016C193.592 165.016 188.984 165.315 184.376 165.912C179.853 166.509 175.544 167.704 171.448 169.496C167.437 171.203 163.811 173.891 160.568 177.56C158.264 180.205 156.301 183.192 154.68 186.52C153.059 189.763 151.821 193.091 150.968 196.504C152.931 197.101 154.893 197.528 156.856 197.784C158.819 197.955 160.781 198.04 162.744 198.04Z" fill="url(#paint0_radial_61_22)"/>
<path d="M77.36 181.48C74.8 181.48 72.112 181.224 69.296 180.712C66.5653 180.2 64.0053 179.304 61.616 178.024C59.2267 176.829 57.3067 175.165 55.856 173.032C54.32 170.984 53.552 168.424 53.552 165.352C53.552 163.219 53.9787 160.872 54.832 158.312C55.6853 155.837 56.9227 153.917 58.544 152.552C58.7147 152.211 59.0133 152.04 59.44 152.04C59.6107 152.04 59.696 152.125 59.696 152.296C59.696 152.637 59.2693 153.32 58.416 154.344C57.4773 155.368 57.008 156.819 57.008 158.696V159.72C57.6907 163.987 59.312 167.443 61.872 170.088C64.432 172.733 67.5467 174.611 71.216 175.72C74.8853 176.915 78.6827 177.512 82.608 177.512C84.9973 177.512 87.4293 177.299 89.904 176.872C92.3787 176.445 94.6827 175.805 96.816 174.952C101.168 173.245 105.392 170.771 109.488 167.528C113.669 164.371 117.68 160.744 121.52 156.648C125.36 152.637 128.901 148.541 132.144 144.36C135.472 140.093 138.459 136.083 141.104 132.328C136.837 135.4 132.059 138.131 126.768 140.52C121.563 142.909 116.144 144.744 110.512 146.024C104.965 147.389 99.5467 148.072 94.256 148.072C93.3173 148.072 92.336 148.029 91.312 147.944C90.3733 147.944 89.4347 147.901 88.496 147.816V149.352C88.496 152.851 89.0507 155.965 90.16 158.696C91.3547 161.427 93.4453 163.773 96.432 165.736C96.944 166.077 97.2 166.419 97.2 166.76C97.2 167.187 96.944 167.4 96.432 167.4H96.048C90.928 166.376 87.3013 163.859 85.168 159.848C83.12 155.923 82.2667 151.528 82.608 146.664C76.2933 145.043 71.3013 142.013 67.632 137.576C63.9627 133.053 62.128 127.464 62.128 120.808C62.128 115.005 63.408 109.288 65.968 103.656C68.6133 98.024 71.6853 92.9893 75.184 88.552C78.768 83.944 82.9493 79.6347 87.728 75.624C92.592 71.6133 97.7973 68.072 103.344 65C108.976 61.8427 114.779 59.4107 120.752 57.704C126.811 55.912 132.784 55.016 138.672 55.016C141.915 55.016 145.243 55.3573 148.656 56.04C152.155 56.6373 155.355 57.7893 158.256 59.496C160.219 60.6053 161.968 61.8427 163.504 63.208C165.125 64.5733 166.661 66.0667 168.112 67.688C168.539 68.1147 168.965 68.5413 169.392 68.968C169.904 69.3093 170.459 69.48 171.056 69.48C171.909 69.48 172.848 68.968 173.872 67.944C174.981 66.8347 176.048 65.768 177.072 64.744C178.181 63.72 179.12 63.208 179.888 63.208C180.144 63.208 180.571 63.2933 181.168 63.464C181.851 63.5493 182.192 63.8053 182.192 64.232C182.192 64.4027 182.107 64.5733 181.936 64.744C179.632 66.792 177.371 68.84 175.152 70.888C172.933 72.936 170.8 75.1547 168.752 77.544C167.472 79.08 166.235 80.6587 165.04 82.28C163.931 83.816 162.779 85.3947 161.584 87.016C161.499 87.1867 161.328 87.4 161.072 87.656C160.901 87.8267 160.645 87.912 160.304 87.912C159.792 87.912 159.536 87.528 159.536 86.76C159.536 86.4187 159.621 85.992 159.792 85.48C160.56 83.688 161.2 81.8533 161.712 79.976C162.309 78.0987 162.608 76.1787 162.608 74.216C162.608 71.0587 161.84 68.456 160.304 66.408C158.853 64.2747 156.933 62.6107 154.544 61.416C152.155 60.136 149.552 59.24 146.736 58.728C144.005 58.216 141.36 57.96 138.8 57.96C132.827 57.96 126.853 59.112 120.88 61.416C114.992 63.6347 109.317 66.664 103.856 70.504C98.48 74.2587 93.616 78.5253 89.264 83.304C84.912 87.9973 81.328 92.8613 78.512 97.896C76.8053 101.053 75.312 104.424 74.032 108.008C72.8373 111.507 72.24 115.048 72.24 118.632C72.24 122.984 73.264 126.867 75.312 130.28C77.4453 133.693 80.3893 136.381 84.144 138.344C85.936 132.2 89.0507 126.909 93.488 122.472C98.0107 117.949 103.216 114.237 109.104 111.336C115.077 108.435 121.264 106.301 127.664 104.936C134.149 103.485 140.336 102.76 146.224 102.76C150.149 102.76 154.032 103.016 157.872 103.528C161.712 104.04 165.595 104.296 169.52 104.296C170.117 104.296 170.715 104.296 171.312 104.296C171.995 104.296 172.635 104.253 173.232 104.168C174.256 104.083 175.067 103.955 175.664 103.784C176.261 103.613 176.987 103.229 177.84 102.632C177.925 102.632 177.968 102.632 177.968 102.632C178.053 102.547 178.139 102.504 178.224 102.504C178.48 102.504 178.608 102.675 178.608 103.016C178.608 103.443 178.352 103.912 177.84 104.424C175.707 106.301 173.701 107.795 171.824 108.904C169.947 110.013 167.515 110.568 164.528 110.568C160.603 116.883 156.379 123.368 151.856 130.024C147.419 136.595 142.597 142.952 137.392 149.096C132.187 155.24 126.555 160.744 120.496 165.608C114.437 170.472 107.824 174.312 100.656 177.128C93.5733 180.029 85.808 181.48 77.36 181.48ZM135.728 101.736C133.424 101.48 130.821 101.267 127.92 101.096C125.104 100.84 122.288 100.456 119.472 99.944C116.741 99.3467 114.352 98.4507 112.304 97.256C111.451 96.744 110.512 96.0613 109.488 95.208C108.549 94.3547 108.08 93.3733 108.08 92.264C108.08 91.752 108.251 91.1973 108.592 90.6C109.275 89.4053 110.64 88.552 112.688 88.04C114.821 87.4427 116.528 87.2293 117.808 87.4C118.064 87.4 118.277 87.4427 118.448 87.528C118.448 87.528 118.448 87.5707 118.448 87.656C118.533 87.656 118.533 87.6987 118.448 87.784C118.363 88.04 118.192 88.2533 117.936 88.424C117.765 88.5093 117.509 88.8933 117.168 89.576C116.827 90.1733 116.869 90.7707 117.296 91.368C117.808 91.9653 118.405 92.52 119.088 93.032C119.856 93.544 120.453 93.928 120.88 94.184C123.355 95.6347 125.829 96.8293 128.304 97.768C130.779 98.6213 133.381 99.432 136.112 100.2C136.453 100.285 136.795 100.413 137.136 100.584C137.477 100.669 137.819 100.797 138.16 100.968C138.16 101.053 138.203 101.139 138.288 101.224C138.459 101.224 138.501 101.267 138.416 101.352C138.331 101.608 137.904 101.779 137.136 101.864C136.453 101.864 135.984 101.821 135.728 101.736ZM101.296 142.056C107.952 142.056 114.779 140.947 121.776 138.728C128.859 136.424 135.088 133.352 140.464 129.512C141.403 128.829 142.427 128.104 143.536 127.336C144.645 126.483 145.499 125.629 146.096 124.776C146.608 124.179 147.077 123.496 147.504 122.728C148.016 121.96 148.485 121.235 148.912 120.552C150.107 118.76 151.216 116.968 152.24 115.176C153.349 113.384 154.416 111.549 155.44 109.672C152.368 109.501 149.253 109.373 146.096 109.288C142.939 109.117 139.824 109.032 136.752 109.032C132.144 109.032 127.536 109.331 122.928 109.928C118.405 110.525 114.096 111.72 110 113.512C105.989 115.219 102.363 117.907 99.12 121.576C96.816 124.221 94.8533 127.208 93.232 130.536C91.6107 133.779 90.3733 137.107 89.52 140.52C91.4827 141.117 93.4453 141.544 95.408 141.8C97.3707 141.971 99.3333 142.056 101.296 142.056Z" fill="url(#paint1_radial_61_22)"/>
<path d="M34.304 98.56C29.3547 98.56 24.7893 98.048 20.608 97.024C16.4267 96 12.9707 94.4213 10.24 92.288C7.50933 90.1547 5.80267 87.424 5.12 84.096C5.03467 83.6693 4.94933 83.2427 4.864 82.816C4.864 82.304 4.864 81.792 4.864 81.28C4.864 77.7813 6.22933 74.368 8.96 71.04C11.776 67.6267 16.128 64.8107 22.016 62.592C27.9893 60.3733 35.6693 59.264 45.056 59.264C46.592 59.264 48.7253 59.392 51.456 59.648C54.1867 59.8187 57.0453 60.2027 60.032 60.8C63.0187 61.312 65.7067 62.0373 68.096 62.976C70.5707 63.9147 72.2347 65.1093 73.088 66.56C73.2587 66.7307 73.344 66.9013 73.344 67.072C73.344 67.7547 73.0027 68.096 72.32 68.096C71.9787 68.096 71.7227 67.9253 71.552 67.584C70.016 65.6213 67.328 64.2987 63.488 63.616C59.648 62.848 55.7227 62.464 51.712 62.464C49.2373 62.464 46.848 62.592 44.544 62.848C42.3253 63.0187 40.4907 63.1893 39.04 63.36C32.5547 64.2133 27.392 65.536 23.552 67.328C19.7973 69.12 17.0667 71.168 15.36 73.472C13.7387 75.776 12.928 78.1227 12.928 80.512C12.928 80.8533 12.928 81.2373 12.928 81.664C13.0133 82.0053 13.0987 82.3893 13.184 82.816C14.0373 87.168 16.6827 90.3253 21.12 92.288C25.5573 94.2507 30.8053 95.232 36.864 95.232C41.5573 95.232 46.464 94.6773 51.584 93.568C56.704 92.544 61.6533 91.0933 66.432 89.216C71.2107 87.2533 75.52 84.9493 79.36 82.304C83.2853 79.5733 86.4 76.5867 88.704 73.344C91.008 70.016 92.16 66.5173 92.16 62.848C92.16 58.6667 90.0693 55.2107 85.888 52.48C81.7067 49.664 75.4347 46.7627 67.072 43.776C64.768 42.9227 62.208 41.984 59.392 40.96C56.576 39.936 53.888 38.6987 51.328 37.248C48.768 35.7973 46.6773 34.0053 45.056 31.872C43.4347 29.6533 42.624 27.008 42.624 23.936C42.624 20.608 43.6053 17.5787 45.568 14.848C47.616 12.1173 49.9627 9.856 52.608 8.064C49.1093 7.38133 45.568 6.86933 41.984 6.528C38.4 6.18667 34.7733 6.016 31.104 6.016C27.9467 6.016 24.7467 6.18667 21.504 6.528C18.3467 6.784 15.2747 7.33867 12.288 8.192C9.64267 8.96 7.38133 10.1547 5.504 11.776C3.712 13.3973 2.816 15.7013 2.816 18.688C2.816 21.5893 3.66933 24.3627 5.376 27.008C7.168 29.6533 9.17333 31.8293 11.392 33.536C13.0987 34.7307 15.3173 35.9253 18.048 37.12C20.7787 38.2293 23.552 39.168 26.368 39.936C29.2693 40.6187 31.744 40.96 33.792 40.96C34.1333 40.96 34.432 40.96 34.688 40.96C35.0293 40.8747 35.328 40.832 35.584 40.832C35.84 40.832 35.968 40.96 35.968 41.216C35.968 41.728 35.2853 42.1547 33.92 42.496C32.64 42.752 31.2747 42.9653 29.824 43.136C28.3733 43.2213 27.392 43.264 26.88 43.264C23.808 43.264 20.6933 42.752 17.536 41.728C14.3787 40.704 11.4773 39.2107 8.832 37.248C6.18667 35.2853 4.05333 32.9387 2.432 30.208C0.810666 27.4773 0 24.4053 0 20.992C0 16.5547 1.152 12.9707 3.456 10.24C5.84533 7.50933 8.87467 5.41867 12.544 3.968C16.2133 2.432 20.0533 1.408 24.064 0.895996C28.0747 0.298665 31.7867 0 35.2 0C39.6373 0 44.032 0.341334 48.384 1.024C52.736 1.62133 57.0453 2.51733 61.312 3.712C63.2747 3.02933 65.7493 2.47466 68.736 2.048C71.7227 1.62133 74.9227 1.408 78.336 1.408C82.176 1.408 86.016 1.74933 89.856 2.432C93.696 3.02934 97.152 4.05333 100.224 5.504C103.296 6.86933 105.557 8.74667 107.008 11.136C107.605 12.0747 107.904 13.0987 107.904 14.208C107.904 15.5733 107.392 16.8107 106.368 17.92C105.429 19.0293 103.979 19.584 102.016 19.584C100.395 19.584 98.7733 19.3707 97.152 18.944C95.616 18.5173 94.08 18.1333 92.544 17.792C86.656 16.256 80.768 14.6773 74.88 13.056C69.0773 11.4347 63.1893 10.0267 57.216 8.832C55.3387 10.112 53.6747 11.6907 52.224 13.568C50.7733 15.4453 50.048 17.5787 50.048 19.968C50.048 22.272 50.7733 24.3627 52.224 26.24C53.6747 28.1173 55.296 29.696 57.088 30.976C59.648 32.768 62.8053 34.304 66.56 35.584C70.4 36.864 74.4107 38.144 78.592 39.424C82.7733 40.6187 86.656 42.0693 90.24 43.776C93.9093 45.4827 96.8533 47.6587 99.072 50.304C101.376 52.9493 102.528 56.32 102.528 60.416C102.528 64.8533 101.12 69.0347 98.304 72.96C95.488 76.8 91.648 80.2987 86.784 83.456C82.0053 86.528 76.6293 89.216 70.656 91.52C64.768 93.7387 58.6667 95.4453 52.352 96.64C46.1227 97.92 40.1067 98.56 34.304 98.56ZM100.224 14.464C102.443 14.464 103.552 13.952 103.552 12.928C103.552 12.16 102.997 11.3067 101.888 10.368C100.779 9.344 99.3707 8.36267 97.664 7.424C95.9573 6.48533 94.1653 5.76 92.288 5.248C87.424 3.968 82.6453 3.328 77.952 3.328C73.7707 3.328 69.7173 3.88267 65.792 4.992C68.0107 5.67466 70.6987 6.57067 73.856 7.68C77.0133 8.704 80.2987 9.77067 83.712 10.88C87.2107 11.904 90.496 12.8 93.568 13.568C95.0187 13.9093 96.2987 14.1653 97.408 14.336C98.5173 14.4213 99.456 14.464 100.224 14.464ZM50.176 55.936C50.0053 55.936 49.8773 55.8933 49.792 55.808C48.4267 55.3813 47.1467 54.528 45.952 53.248C44.7573 51.968 44.16 50.56 44.16 49.024C44.16 47.744 44.5867 46.8053 45.44 46.208C46.3787 45.5253 47.4453 45.056 48.64 44.8C49.92 44.544 51.0293 44.416 51.968 44.416C54.4427 44.416 56.9173 44.8427 59.392 45.696C61.952 46.464 64.3413 47.232 66.56 48C66.816 48.0853 67.2427 48.2987 67.84 48.64C68.4373 48.9813 68.736 49.28 68.736 49.536C68.736 49.7067 68.608 49.8347 68.352 49.92C68.096 49.92 67.8827 49.92 67.712 49.92C66.688 49.92 65.6213 49.8773 64.512 49.792C63.488 49.6213 62.4213 49.536 61.312 49.536C60.7147 49.536 59.7333 49.5787 58.368 49.664C57.088 49.664 55.68 49.792 54.144 50.048C52.6933 50.2187 51.5413 50.148 50.432 50.66C49.408 51.172 48.768 52.2667 48.768 53.12C48.768 54.0587 49.024 54.656 49.536 54.912C50.1333 55.0827 50.432 55.3813 50.432 55.808C50.432 55.8933 50.3467 55.936 50.176 55.936Z" fill="url(#paint2_radial_61_22)"/>
<path d="M206.989 13.7509C207.291 12.7497 208.709 12.7497 209.011 13.7509L212.614 25.6806C212.716 26.0192 212.981 26.2842 213.319 26.3864L225.249 29.9888C226.25 30.2911 226.25 31.7088 225.249 32.0112L213.319 35.6136C212.981 35.7158 212.716 35.9808 212.614 36.3194L209.011 48.2491C208.709 49.2503 207.291 49.2503 206.989 48.2491L203.386 36.3194C203.284 35.9808 203.019 35.7158 202.681 35.6136L190.751 32.0112C189.75 31.7088 189.75 30.2911 190.751 29.9888L202.681 26.3864C203.019 26.2842 203.284 26.0192 203.386 25.6806L206.989 13.7509Z" fill="url(#paint3_star_61_22)"/>
<defs>
<radialGradient id="paint0_radial_61_22" cx="0" cy="0" r="1" gradientUnits="userSpaceOnUse" gradientTransform="translate(179 160) rotate(126.511) scale(95.8019 72.9198)">
<stop stop-color="white" style="stop-color:white;stop-opacity:1;"/>
<stop offset="0.506704" stop-color="#FFB81F" style="stop-color:#FFB81F;stop-color:color(display-p3 1.0000 0.7224 0.1234);stop-opacity:1;"/>
<stop offset="1" stop-color="#FF64F2" style="stop-color:#FF64F2;stop-color:color(display-p3 1.0000 0.3912 0.9493);stop-opacity:1;"/>
</radialGradient>
<radialGradient id="paint1_radial_61_22" cx="0" cy="0" r="1" gradientTransform="matrix(-44 98.5 -56.3433 -30.4587 116 100)" gradientUnits="userSpaceOnUse">
<stop stop-color="white" style="stop-color:white;stop-opacity:1;"/>
<stop offset="0.68803" stop-color="#FFB81F" style="stop-color:#FFB81F;stop-color:color(display-p3 1.0000 0.7224 0.1234);stop-opacity:1;"/>
<stop offset="1" stop-color="#FF64F2" style="stop-color:#FF64F2;stop-color:color(display-p3 1.0000 0.3912 0.9493);stop-opacity:1;"/>
</radialGradient>
<radialGradient id="paint2_radial_61_22" cx="0" cy="0" r="1" gradientUnits="userSpaceOnUse" gradientTransform="translate(65.012 48.16) rotate(104.188) scale(91.8001 67.0574)">
<stop stop-color="white" style="stop-color:white;stop-opacity:1;"/>
<stop offset="0.625" stop-color="#FFB81F" style="stop-color:#FFB81F;stop-color:color(display-p3 1.0000 0.7224 0.1234);stop-opacity:1;"/>
<stop offset="1" stop-color="#FF64F2" style="stop-color:#FF64F2;stop-color:color(display-p3 1.0000 0.3912 0.9493);stop-opacity:1;"/>
</radialGradient>
<radialGradient id="paint3_star_61_22" cx="0" cy="0" r="1" gradientUnits="userSpaceOnUse" gradientTransform="translate(208 31) scale(17.25)">
<stop stop-color="#FFF8E9"/>
<stop offset="0.543269" stop-color="#FFB81F"/>
<stop offset="1" stop-color="#FF64F2"/>
</radialGradient>
</defs>
</svg>
