<svg width="171" height="171" viewBox="0 0 171 171" fill="none" xmlns="http://www.w3.org/2000/svg">
<path d="M56.1183 144.56C51.4843 144.56 47.2099 144.081 43.295 143.122C39.38 142.163 36.1442 140.685 33.5876 138.688C31.0309 136.69 29.433 134.134 28.7938 131.018C28.7139 130.618 28.634 130.219 28.5541 129.819C28.5541 129.34 28.5541 128.86 28.5541 128.381C28.5541 125.105 29.8324 121.909 32.3891 118.793C35.0257 115.598 39.1004 112.961 44.6133 110.884C50.206 108.806 57.3967 107.768 66.1853 107.768C67.6234 107.768 69.6208 107.888 72.1775 108.127C74.7342 108.287 77.4107 108.647 80.2071 109.206C83.0035 109.685 85.5202 110.364 87.7573 111.243C90.0743 112.122 91.6323 113.241 92.4312 114.599C92.591 114.759 92.6709 114.918 92.6709 115.078C92.6709 115.717 92.3513 116.037 91.7122 116.037C91.3926 116.037 91.1529 115.877 90.9931 115.558C89.555 113.72 87.0382 112.482 83.4429 111.842C79.8476 111.123 76.1723 110.764 72.4172 110.764C70.1002 110.764 67.8631 110.884 65.7059 111.123C63.6286 111.283 61.9108 111.443 60.5526 111.603C54.4805 112.402 49.6467 113.64 46.0514 115.318C42.536 116.996 39.9793 118.913 38.3813 121.07C36.8633 123.228 36.1043 125.425 36.1043 127.662C36.1043 127.982 36.1043 128.341 36.1043 128.741C36.1842 129.06 36.2641 129.42 36.344 129.819C37.143 133.894 39.6197 136.85 43.7744 138.688C47.929 140.525 52.8426 141.444 58.5152 141.444C62.9095 141.444 67.5036 140.925 72.2974 139.886C77.0911 138.927 81.7251 137.569 86.1993 135.811C90.6735 133.974 94.7083 131.817 98.3036 129.34C101.979 126.783 104.895 123.987 107.052 120.951C109.209 117.835 110.288 114.559 110.288 111.123C110.288 107.208 108.331 103.973 104.416 101.416C100.501 98.7794 94.6284 96.0629 86.7985 93.2666C84.6413 92.4676 82.2445 91.5887 79.6079 90.63C76.9713 89.6712 74.4546 88.5127 72.0577 87.1545C69.6608 85.7962 67.7033 84.1184 66.1853 82.121C64.6672 80.0437 63.9082 77.5669 63.9082 74.6906C63.9082 71.5747 64.827 68.7384 66.6647 66.1817C68.5822 63.625 70.7793 61.5078 73.2561 59.8299C69.9804 59.1908 66.6647 58.7114 63.309 58.3918C59.9534 58.0722 56.5578 57.9124 53.1222 57.9124C50.1661 57.9124 47.1699 58.0722 44.1339 58.3918C41.1777 58.6315 38.3014 59.1508 35.5051 59.9498C33.0283 60.6688 30.911 61.7874 29.1533 63.3054C27.4755 64.8235 26.6366 66.9807 26.6366 69.777C26.6366 72.4935 27.4355 75.0901 29.0335 77.5669C30.7113 80.0437 32.5889 82.0811 34.6662 83.679C36.2641 84.7975 38.3414 85.9161 40.8981 87.0346C43.4548 88.0733 46.0514 88.9522 48.688 89.6712C51.4045 90.3104 53.7214 90.63 55.639 90.63C55.9585 90.63 56.2382 90.63 56.4779 90.63C56.7975 90.5501 57.0771 90.5101 57.3168 90.5101C57.5565 90.5101 57.6763 90.63 57.6763 90.8697C57.6763 91.349 57.0371 91.7485 55.7588 92.0681C54.5604 92.3078 53.282 92.5075 51.9238 92.6673C50.5655 92.7472 49.6467 92.7872 49.1674 92.7872C46.2911 92.7872 43.3749 92.3078 40.4187 91.349C37.4625 90.3903 34.7461 88.9921 32.2693 87.1545C29.7925 85.3169 27.7951 83.1197 26.277 80.563C24.759 78.0064 24 75.1301 24 71.9342C24 67.7796 25.0786 64.424 27.2358 61.8673C29.4729 59.3106 32.3092 57.3531 35.7448 55.9949C39.1803 54.5568 42.7756 53.598 46.5308 53.1186C50.2859 52.5594 53.7614 52.2797 56.9573 52.2797C61.1119 52.2797 65.2265 52.5993 69.3012 53.2385C73.376 53.7978 77.4107 54.6367 81.4055 55.7552C83.2432 55.116 85.5602 54.5967 88.3565 54.1972C91.1529 53.7978 94.149 53.598 97.3449 53.598C100.94 53.598 104.536 53.9176 108.131 54.5568C111.726 55.116 114.962 56.0748 117.838 57.433C120.715 58.7114 122.832 60.4691 124.19 62.7062C124.749 63.5851 125.029 64.5438 125.029 65.5825C125.029 66.8608 124.55 68.0193 123.591 69.058C122.712 70.0966 121.354 70.6159 119.516 70.6159C117.998 70.6159 116.48 70.4162 114.962 70.0167C113.524 69.6172 112.086 69.2577 110.648 68.9381C105.135 67.5 99.6219 66.0219 94.1091 64.5039C88.6761 62.9858 83.1633 61.6675 77.5705 60.549C75.8128 61.7474 74.2548 63.2255 72.8966 64.9832C71.5383 66.741 70.8592 68.7384 70.8592 70.9755C70.8592 73.1327 71.5383 75.0901 72.8966 76.8479C74.2548 78.6056 75.7728 80.0837 77.4507 81.2821C79.8476 82.9599 82.8037 84.3981 86.3192 85.5965C89.9145 86.795 93.6696 87.9934 97.5846 89.1918C101.499 90.3104 105.135 91.6686 108.49 93.2666C111.926 94.8645 114.682 96.9018 116.76 99.3786C118.917 101.855 119.995 105.011 119.995 108.846C119.995 113.001 118.677 116.916 116.041 120.591C113.404 124.186 109.809 127.462 105.255 130.418C100.78 133.295 95.7469 135.811 90.1542 137.969C84.6413 140.046 78.9288 141.644 73.0164 142.762C67.184 143.961 61.5513 144.56 56.1183 144.56ZM117.838 65.8222C119.916 65.8222 120.954 65.3428 120.954 64.384C120.954 63.665 120.435 62.866 119.396 61.9871C118.358 61.0284 117.039 60.1096 115.441 59.2307C113.843 58.3518 112.166 57.6727 110.408 57.1934C105.854 55.9949 101.38 55.3957 96.9853 55.3957C93.0704 55.3957 89.2753 55.915 85.6001 56.9537C87.6774 57.5928 90.1941 58.4317 93.1503 59.4704C96.1065 60.4292 99.1825 61.4279 102.378 62.4665C105.654 63.4253 108.73 64.2642 111.606 64.9832C112.965 65.3028 114.163 65.5425 115.202 65.7023C116.24 65.7822 117.119 65.8222 117.838 65.8222ZM70.9791 104.652C70.8193 104.652 70.6994 104.612 70.6195 104.532C69.3412 104.132 68.1427 103.333 67.0242 102.135C65.9056 100.937 65.3464 99.6183 65.3464 98.1802C65.3464 96.9817 65.7459 96.1029 66.5448 95.5436C67.4237 94.9044 68.4224 94.465 69.5409 94.2253C70.7394 93.9856 71.778 93.8658 72.6569 93.8658C74.9739 93.8658 77.2909 94.2653 79.6079 95.0642C82.0048 95.7833 84.2419 96.5024 86.3192 97.2214C86.5589 97.3013 86.9583 97.5011 87.5176 97.8207C88.0769 98.1402 88.3565 98.4199 88.3565 98.6596C88.3565 98.8194 88.2367 98.9392 87.997 99.0191C87.7573 99.0191 87.5576 99.0191 87.3978 99.0191C86.439 99.0191 85.4403 98.9791 84.4017 98.8992C83.4429 98.7395 82.4442 98.6596 81.4055 98.6596C80.8463 98.6596 79.9275 98.6995 78.6491 98.7794C77.4507 98.7794 76.1324 98.8992 74.6942 99.1389C73.336 99.2987 72.2574 99.2326 71.2188 99.7119C70.26 100.191 69.6608 101.216 69.6608 102.015C69.6608 102.894 69.9005 103.453 70.3798 103.693C70.9391 103.853 71.2188 104.132 71.2188 104.532C71.2188 104.612 71.1389 104.652 70.9791 104.652Z" fill="url(#paint0_radial_56_7)"/>
<g clip-path="url(#paint1_diamond_56_7_clip_path)" data-figma-skip-parse="true"><g transform="matrix(-3.80852e-05 0.0177513 -0.0143488 -3.07851e-05 129.838 42.9549)"><rect x="0" y="0" width="957.181" height="1184.16" fill="url(#paint1_diamond_56_7)" opacity="1" shape-rendering="crispEdges"/><rect x="0" y="0" width="957.181" height="1184.16" transform="scale(1 -1)" fill="url(#paint1_diamond_56_7)" opacity="1" shape-rendering="crispEdges"/><rect x="0" y="0" width="957.181" height="1184.16" transform="scale(-1 1)" fill="url(#paint1_diamond_56_7)" opacity="1" shape-rendering="crispEdges"/><rect x="0" y="0" width="957.181" height="1184.16" transform="scale(-1)" fill="url(#paint1_diamond_56_7)" opacity="1" shape-rendering="crispEdges"/></g></g><path d="M128.942 27.6656C129.21 26.7781 130.467 26.7781 130.735 27.6656L133.928 38.2399C134.018 38.5401 134.253 38.7749 134.553 38.8656L145.128 42.0586C146.015 42.3266 146.015 43.5833 145.128 43.8513L134.553 47.0443C134.253 47.135 134.018 47.3698 133.928 47.67L130.735 58.2443C130.467 59.1318 129.21 59.1318 128.942 58.2443L125.749 47.67C125.658 47.3698 125.423 47.135 125.123 47.0443L114.549 43.8513C113.662 43.5833 113.662 42.3266 114.549 42.0586L125.123 38.8656C125.423 38.7749 125.658 38.5401 125.749 38.2399L128.942 27.6656Z" data-figma-gradient-fill="{&#34;type&#34;:&#34;GRADIENT_DIAMOND&#34;,&#34;stops&#34;:[{&#34;color&#34;:{&#34;r&#34;:1.0,&#34;g&#34;:0.97254902124404907,&#34;b&#34;:0.91372549533843994,&#34;a&#34;:1.0},&#34;position&#34;:0.0},{&#34;color&#34;:{&#34;r&#34;:1.0,&#34;g&#34;:0.72241115570068359,&#34;b&#34;:0.12340369820594788,&#34;a&#34;:1.0},&#34;position&#34;:0.54326921701431274},{&#34;color&#34;:{&#34;r&#34;:1.0,&#34;g&#34;:0.39120718836784363,&#34;b&#34;:0.94926726818084717,&#34;a&#34;:1.0},&#34;position&#34;:1.0}],&#34;stopsVar&#34;:[{&#34;color&#34;:{&#34;r&#34;:1.0,&#34;g&#34;:0.97254902124404907,&#34;b&#34;:0.91372549533843994,&#34;a&#34;:1.0},&#34;position&#34;:0.0},{&#34;color&#34;:{&#34;r&#34;:1.0,&#34;g&#34;:0.72241115570068359,&#34;b&#34;:0.12340369820594788,&#34;a&#34;:1.0},&#34;position&#34;:0.54326921701431274},{&#34;color&#34;:{&#34;r&#34;:1.0,&#34;g&#34;:0.39120718836784363,&#34;b&#34;:0.94926726818084717,&#34;a&#34;:1.0},&#34;position&#34;:1.0}],&#34;transform&#34;:{&#34;m00&#34;:-0.076170399785041809,&#34;m01&#34;:-28.697570800781250,&#34;m02&#34;:144.22523498535156,&#34;m10&#34;:35.502662658691406,&#34;m11&#34;:-0.06157018244266510,&#34;m12&#34;:25.234397888183594},&#34;opacity&#34;:1.0,&#34;blendMode&#34;:&#34;NORMAL&#34;,&#34;visible&#34;:true}"/>
<defs>
<clipPath id="paint1_diamond_56_7_clip_path"><path d="M128.942 27.6656C129.21 26.7781 130.467 26.7781 130.735 27.6656L133.928 38.2399C134.018 38.5401 134.253 38.7749 134.553 38.8656L145.128 42.0586C146.015 42.3266 146.015 43.5833 145.128 43.8513L134.553 47.0443C134.253 47.135 134.018 47.3698 133.928 47.67L130.735 58.2443C130.467 59.1318 129.21 59.1318 128.942 58.2443L125.749 47.67C125.658 47.3698 125.423 47.135 125.123 47.0443L114.549 43.8513C113.662 43.5833 113.662 42.3266 114.549 42.0586L125.123 38.8656C125.423 38.7749 125.658 38.5401 125.749 38.2399L128.942 27.6656Z"/></clipPath><radialGradient id="paint0_radial_56_7" cx="0" cy="0" r="1" gradientUnits="userSpaceOnUse" gradientTransform="translate(65.1966 68.1966) rotate(90.7095) scale(112.513 76.7734)">
<stop stop-color="white"/>
<stop offset="0.576923" stop-color="#FFB81F"/>
<stop offset="0.793269" stop-color="#FF64F2"/>
</radialGradient>
<linearGradient id="paint1_diamond_56_7" x1="0" y1="0" x2="500" y2="500" gradientUnits="userSpaceOnUse">
<stop stop-color="#FFF8E9"/>
<stop offset="0.543269" stop-color="#FFB81F"/>
<stop offset="1" stop-color="#FF64F2"/>
</linearGradient>
</defs>
</svg>
